<?xml version="1.0" encoding="utf-8"?>

<!DOCTYPE svg PUBLIC "-//W3C//DTD SVG 1.1//EN" "http://www.w3.org/Graphics/SVG/1.1/DTD/svg11.dtd">
<!-- Uploaded to: SVG Repo, www.svgrepo.com, Generator: SVG Repo Mixer Tools -->
<svg height="800px" width="800px" version="1.1" id="_x32_" xmlns="http://www.w3.org/2000/svg" xmlns:xlink="http://www.w3.org/1999/xlink" 
	 viewBox="0 0 512 512"  xml:space="preserve">
<style type="text/css">
	.st0{fill:#000000;}
</style>
<g>
	<polygon class="st0" points="488.776,302.008 78.962,302.008 0,302.008 75.612,414.785 483.916,414.785 512,302.008 	"/>
	<path class="st0" d="M477.435,225.975h-36.726l-17.282-51.848h-45.367H306.16h-81.485l12.962-45.367h-15.122l-30.245,45.367
		h-45.367L78.962,277.823h409.814L477.435,225.975z M187.95,242.818h-25.924v-25.924h25.924V242.818z M250.599,242.818h-25.924
		v-25.924h25.924V242.818z M313.249,242.818h-25.924v-25.924h25.924V242.818z M369.418,242.818h-25.924v-25.924h25.924V242.818z"/>
	<polygon class="st0" points="378.059,97.215 319.73,97.215 315.03,119.679 378.059,119.679 	"/>
	<polygon class="st0" points="378.059,132.641 312.312,132.641 306.16,162.025 378.059,162.025 	"/>
</g>
</svg>